<svg width="1500" height="409" viewBox="0 0 1500 409" fill="none" xmlns="http://www.w3.org/2000/svg">
<g clip-path="url(#clip0_608_372)">
<g clip-path="url(#clip1_608_372)">
<g clip-path="url(#clip2_608_372)">
<g clip-path="url(#clip3_608_372)">
<g clip-path="url(#clip4_608_372)">
<g clip-path="url(#clip5_608_372)">
<g clip-path="url(#clip6_608_372)">
<g clip-path="url(#clip7_608_372)">
<path d="M1.59644 408.607V261.655H100.264L100.054 282.858H26.3684V326.524H93.1266V347.517H26.3684V408.607H1.59644ZM190.745 358.853H157.366C149.528 358.853 143.72 360.043 139.941 362.422C136.163 364.801 134.273 368.72 134.273 374.178C134.273 379.357 136.191 383.485 140.025 386.564C143.888 389.643 149.178 391.183 155.896 391.183C161.914 391.183 167.302 390.133 172.061 388.034C176.819 385.935 180.598 383.093 183.397 379.511C186.196 375.956 187.666 371.939 187.806 367.461L192.424 387.824C188.925 395.102 183.607 400.56 176.469 404.199C169.332 407.837 160.794 409.657 150.858 409.657C142.88 409.657 135.953 408.117 130.075 405.038C124.196 401.959 119.648 397.789 116.429 392.526C113.21 387.292 111.601 381.456 111.601 375.018C111.601 364.941 115.267 356.894 122.601 350.876C129.963 344.858 140.361 341.779 153.797 341.639H190.745V358.853ZM187.806 408.607L187.596 337.86C187.596 330.583 185.356 324.914 180.878 320.856C176.399 316.797 169.752 314.768 160.934 314.768C155.616 314.768 150.186 315.747 144.644 317.707C139.13 319.666 133.573 322.535 127.975 326.314L118.108 310.779C123.287 307.56 128.185 304.901 132.804 302.802C137.422 300.702 142.349 299.093 147.583 297.973C152.845 296.854 159.045 296.294 166.183 296.294C180.598 296.294 191.682 299.751 199.436 306.664C207.217 313.606 211.178 323.165 211.318 335.341L211.528 408.607H187.806ZM306.627 296.294V318.127C298.65 317.707 291.75 319.064 285.928 322.199C280.134 325.362 275.655 329.743 272.492 335.341C269.357 340.939 267.79 347.377 267.79 354.655L261.03 353.815C261.03 341.359 262.863 330.863 266.53 322.325C270.169 313.788 275.417 307.308 282.275 302.886C289.133 298.491 297.25 296.294 306.627 296.294ZM243.857 408.607V297.134H268V408.607H243.857ZM407.772 408.607V345.628C407.772 336.811 405.463 329.911 400.844 324.928C396.226 319.974 389.788 317.497 381.53 317.497C371.874 317.777 364.288 321.346 358.774 328.203C353.232 335.061 350.461 343.528 350.461 353.605H343.743C343.743 339.89 345.674 328.833 349.537 320.436C353.372 312.039 358.83 305.909 365.912 302.046C372.965 298.211 381.321 296.294 390.977 296.294C399.515 296.294 406.834 298.043 412.936 301.542C419.01 305.041 423.699 309.967 427.002 316.321C430.277 322.703 431.914 330.373 431.914 339.33V408.607H407.772ZM489.015 408.607V345.628C489.015 336.811 486.678 329.911 482.004 324.928C477.301 319.974 470.821 317.497 462.564 317.497C453.047 317.777 445.56 321.346 440.101 328.203C434.643 335.061 431.914 343.528 431.914 353.605H424.986C424.986 339.89 426.918 328.833 430.78 320.436C434.615 312.039 440.073 305.909 447.155 302.046C454.209 298.211 462.564 296.294 472.221 296.294C480.758 296.294 488.078 298.043 494.18 301.542C500.254 305.041 504.942 309.967 508.245 316.321C511.52 322.703 513.158 330.373 513.158 339.33V408.607H489.015ZM326.528 408.607V297.134H350.461V408.607H326.528ZM554.514 344.788H622.742C622.462 338.49 621.034 333.13 618.459 328.707C615.856 324.313 612.245 320.884 607.627 318.421C603.008 315.985 597.69 314.768 591.672 314.768C584.954 314.768 579.118 316.307 574.164 319.386C569.181 322.465 565.29 326.762 562.491 332.276C559.692 337.818 558.293 344.298 558.293 351.716C558.293 359.693 559.804 366.621 562.827 372.499C565.822 378.377 570.021 382.926 575.423 386.145C580.797 389.363 586.983 390.973 593.981 390.973C606.437 390.973 616.934 386.564 625.471 377.747L638.277 390.553C632.818 396.571 626.171 401.218 618.333 404.493C610.496 407.795 601.749 409.447 592.092 409.447C580.615 409.447 570.609 407.068 562.071 402.309C553.534 397.551 546.886 390.931 542.128 382.45C537.37 373.996 534.99 364.172 534.99 352.975C534.99 341.779 537.37 331.94 542.128 323.459C546.886 315.006 553.534 308.4 562.071 303.641C570.609 298.883 580.406 296.434 591.462 296.294C604.618 296.294 615.184 298.981 623.162 304.355C631.139 309.757 636.807 317.357 640.166 327.154C643.525 336.951 644.715 348.567 643.735 362.002H554.514V344.788ZM731.696 296.294V318.127C723.719 317.707 716.819 319.064 710.997 322.199C705.203 325.362 700.724 329.743 697.561 335.341C694.426 340.939 692.859 347.377 692.859 354.655L686.141 353.815C686.141 341.359 687.96 330.863 691.599 322.325C695.238 313.788 700.486 307.308 707.344 302.886C714.202 298.491 722.319 296.294 731.696 296.294ZM668.927 408.607V297.134H693.069V408.607H668.927ZM746.391 312.459V261.655H764.865V312.459H746.391ZM867.69 307.21L858.873 324.215C853.974 321.276 848.628 318.924 842.834 317.161C837.012 315.426 831.652 314.558 826.753 314.558C821.995 314.558 818.076 315.468 814.997 317.287C811.918 319.106 810.378 322.115 810.378 326.314C810.378 329.813 811.82 332.57 814.703 334.585C817.558 336.629 821.225 338.35 825.703 339.75C830.182 341.149 834.94 342.619 839.979 344.158C845.017 345.698 849.818 347.685 854.38 350.12C858.915 352.583 862.581 355.914 865.381 360.113C868.18 364.312 869.579 369.84 869.579 376.698C869.579 384.255 867.592 390.441 863.617 395.256C859.614 400.098 854.366 403.667 847.872 405.962C841.35 408.285 834.311 409.447 826.753 409.447C818.636 409.447 810.518 408.117 802.401 405.458C794.284 402.799 787.426 398.95 781.828 393.912L790.435 377.537C795.333 381.876 801.281 385.263 808.279 387.698C815.277 390.161 821.785 391.393 827.803 391.393C831.302 391.393 834.423 390.945 837.166 390.049C839.881 389.126 842.05 387.754 843.674 385.935C845.269 384.115 846.067 381.736 846.067 378.797C846.067 374.878 844.667 371.799 841.868 369.56C839.069 367.321 835.43 365.459 830.952 363.976C826.473 362.52 821.715 361.051 816.676 359.567C811.638 358.112 806.922 356.194 802.527 353.815C798.104 351.436 794.494 348.217 791.695 344.158C788.895 340.1 787.496 334.711 787.496 327.993C787.496 320.436 789.455 314.306 793.374 309.603C797.293 304.929 802.373 301.5 808.615 299.317C814.829 297.162 821.505 296.084 828.643 296.084C835.64 296.084 842.638 297.064 849.636 299.023C856.633 300.982 862.651 303.711 867.69 307.21ZM934.658 282.858V261.655H1052.43V282.858H1005.82V408.607H981.053V282.858H934.658ZM1142.07 358.853H1108.69C1100.85 358.853 1095.05 360.043 1091.27 362.422C1087.49 364.801 1085.6 368.72 1085.6 374.178C1085.6 379.357 1087.52 383.485 1091.35 386.564C1095.21 389.643 1100.5 391.183 1107.22 391.183C1113.24 391.183 1118.63 390.133 1123.39 388.034C1128.14 385.935 1131.92 383.093 1134.72 379.511C1137.52 375.956 1138.99 371.939 1139.13 367.461L1143.75 387.824C1140.25 395.102 1134.93 400.56 1127.79 404.199C1120.66 407.837 1112.12 409.657 1102.18 409.657C1094.21 409.657 1087.28 408.117 1081.4 405.038C1075.52 401.959 1070.97 397.789 1067.75 392.526C1064.54 387.292 1062.93 381.456 1062.93 375.018C1062.93 364.941 1066.59 356.894 1073.93 350.876C1081.29 344.858 1091.69 341.779 1105.12 341.639H1142.07V358.853ZM1139.13 408.607L1138.92 337.86C1138.92 330.583 1136.68 324.914 1132.2 320.856C1127.72 316.797 1121.08 314.768 1112.26 314.768C1106.94 314.768 1101.51 315.747 1095.97 317.707C1090.46 319.666 1084.9 322.535 1079.3 326.314L1069.43 310.779C1074.61 307.56 1079.51 304.901 1084.13 302.802C1088.75 300.702 1093.67 299.093 1098.91 297.973C1104.17 296.854 1110.37 296.294 1117.51 296.294C1131.92 296.294 1143.01 299.751 1150.76 306.664C1158.54 313.606 1162.5 323.165 1162.64 335.341L1162.85 408.607H1139.13ZM1259.38 296.294C1270.02 296.294 1279.32 298.673 1287.3 303.431C1295.28 308.19 1301.51 314.838 1305.98 323.375C1310.46 331.912 1312.7 341.849 1312.7 353.185C1312.7 364.242 1310.51 373.996 1306.11 382.45C1301.69 390.931 1295.53 397.551 1287.64 402.309C1279.72 407.068 1270.44 409.447 1259.8 409.447C1249.58 409.447 1240.88 407.208 1233.68 402.729C1226.46 398.251 1220.96 391.771 1217.18 383.289C1213.4 374.836 1211.52 364.801 1211.52 353.185C1211.52 341.149 1213.4 330.891 1217.18 322.409C1220.96 313.956 1226.46 307.49 1233.68 303.012C1240.88 298.533 1249.44 296.294 1259.38 296.294ZM1254.34 315.398C1247.76 315.398 1241.89 317.007 1236.71 320.226C1231.53 323.445 1227.51 327.812 1224.66 333.326C1221.77 338.868 1220.33 345.278 1220.33 352.555C1220.33 359.833 1221.77 366.313 1224.66 371.995C1227.51 377.649 1231.53 382.044 1236.71 385.179C1241.89 388.342 1247.76 389.923 1254.34 389.923C1261.06 389.923 1266.98 388.314 1272.1 385.095C1277.2 381.876 1281.18 377.467 1284.07 371.869C1286.92 366.271 1288.35 359.833 1288.35 352.555C1288.35 345.418 1286.92 339.05 1284.07 333.452C1281.18 327.854 1277.2 323.445 1272.1 320.226C1266.98 317.007 1261.06 315.398 1254.34 315.398ZM1196.19 408.607V252.838H1220.33V408.607H1196.19ZM1338.94 408.607V252.838H1363.09V408.607H1338.94ZM1408.85 344.788H1477.08C1476.8 338.49 1475.36 333.13 1472.75 328.707C1470.18 324.313 1466.58 320.884 1461.96 318.421C1457.35 315.985 1452.03 314.768 1446.01 314.768C1439.29 314.768 1433.44 316.307 1428.46 319.386C1423.5 322.465 1419.63 326.762 1416.83 332.276C1414.03 337.818 1412.63 344.298 1412.63 351.716C1412.63 359.693 1414.13 366.621 1417.12 372.499C1420.15 378.377 1424.34 382.926 1429.72 386.145C1435.12 389.363 1441.32 390.973 1448.32 390.973C1460.77 390.973 1471.27 386.564 1479.81 377.747L1492.61 390.553C1487.16 396.571 1480.51 401.218 1472.67 404.493C1464.83 407.795 1456.09 409.447 1446.43 409.447C1434.95 409.447 1424.95 407.068 1416.41 402.309C1407.87 397.551 1401.22 390.931 1396.47 382.45C1391.71 373.996 1389.33 364.172 1389.33 352.975C1389.33 341.779 1391.71 331.94 1396.47 323.459C1401.22 315.006 1407.87 308.4 1416.41 303.641C1424.95 298.883 1434.74 296.434 1445.8 296.294C1458.95 296.294 1469.52 298.981 1477.5 304.355C1485.48 309.757 1491.14 317.357 1494.5 327.154C1497.86 336.951 1499.05 348.567 1498.07 362.002H1408.85V344.788Z" fill="#091627"/>
</g>
</g>
</g>
</g>
<g clip-path="url(#clip8_608_372)">
<g clip-path="url(#clip9_608_372)">
<path d="M1024.35 66.1556C1021.79 56.5619 1009 51.4453 1001.33 48.2474C988.535 43.1308 975.743 39.9329 962.312 37.3746C933.531 31.6184 904.11 28.4205 874.69 25.8622C860.619 16.2685 842.071 14.9894 827.361 22.6643C824.163 22.6643 820.965 22.0247 817.128 22.0247C801.778 -4.19798 763.403 -6.11671 745.495 18.8268C729.506 -9.3146 687.293 -6.7563 674.502 22.6643C635.488 24.583 596.473 27.7809 558.099 33.5371C544.668 35.4559 453.208 50.8057 480.07 77.668C486.466 89.82 503.735 96.8553 515.887 102.612C532.516 110.926 549.145 119.241 564.494 128.834C590.717 145.463 613.742 169.767 613.102 202.386V203.025C613.102 208.782 634.208 210.7 638.686 210.7C650.837 212.619 662.989 213.259 675.141 213.898C702.004 215.817 728.226 215.817 755.089 215.817C780.672 215.817 806.255 215.177 831.198 213.259C843.35 212.619 856.142 211.34 868.294 208.781C870.852 208.142 886.202 206.863 886.202 202.386V201.746C886.202 165.93 913.064 141.626 941.206 124.997C955.916 116.043 971.266 109.007 986.616 101.332C997.489 95.5762 1018.59 87.2617 1021.15 73.8305C1024.35 72.5514 1025.63 69.9931 1024.35 66.1556ZM748.053 27.1413C761.484 1.55822 801.778 0.918644 813.29 28.4205C813.93 29.6997 814.569 30.9788 815.209 32.258C807.534 40.5725 803.057 50.8057 803.057 62.9577C796.022 61.6786 788.347 62.3181 781.951 64.8765C774.916 50.1662 760.845 39.9329 744.216 38.6537C744.855 34.8163 746.135 30.9788 748.053 27.1413C749.333 25.2226 746.135 30.9788 748.053 27.1413ZM678.979 29.0601C687.933 0.279058 729.506 -2.27925 741.658 25.8622C741.658 26.5018 741.018 27.1414 741.018 27.7809C739.739 31.6184 738.46 35.4559 737.82 39.2933C723.749 39.9329 710.958 47.6078 703.283 59.1202C696.887 56.5619 689.852 55.9224 682.816 57.2015C677.06 48.2474 675.781 38.0142 678.979 29.0601ZM657.873 30.3392C662.989 30.3392 667.467 29.6997 672.583 29.6997C671.944 31.6184 671.944 33.5371 671.304 35.4558C666.827 32.8975 662.35 30.9788 657.873 30.3392ZM562.576 96.8554C539.551 93.0179 515.887 89.82 494.78 80.2263C489.664 77.668 478.151 72.5514 482.628 65.516C485.826 60.3994 492.222 57.8411 497.339 55.2828C516.526 46.9683 538.272 43.1308 558.738 39.9329C584.961 35.4559 611.184 32.8976 637.406 30.9788C619.498 36.735 607.986 54.0036 608.625 72.5514C591.996 70.6327 576.007 81.5055 572.169 97.4949C568.972 98.1345 565.774 97.4949 562.576 96.8554ZM579.205 99.4136C586.24 70.6326 630.371 75.1097 631.011 105.17C611.823 103.251 594.555 101.332 579.205 99.4136ZM636.767 103.251C636.127 89.82 627.173 78.9472 615.021 74.4701C611.823 44.41 647 24.583 670.664 42.4912C671.304 48.2474 672.583 53.364 675.141 57.8411C654.675 64.2369 641.883 84.7034 645.081 105.809C642.523 105.17 639.965 104.53 636.767 103.251ZM723.749 109.007C723.749 109.007 674.502 107.728 652.117 106.449C647.64 83.4242 666.187 61.6786 689.852 62.3181C713.516 63.5973 730.145 86.6221 723.749 109.007ZM749.972 109.007C743.576 109.007 736.541 109.007 730.145 109.007C734.622 90.4596 725.668 69.9931 708.4 61.039C725.668 37.3746 762.764 41.2121 774.916 67.4347C760.205 75.7493 751.251 92.3783 752.53 109.007C751.891 109.007 751.251 109.007 749.972 109.007ZM833.117 107.089C810.092 108.368 785.788 109.007 759.566 109.007C757.647 88.5408 773.636 69.3535 794.103 68.7139C815.849 68.0743 833.757 85.9825 833.117 107.089C833.117 106.449 810.092 108.368 833.117 107.089ZM848.467 102.612C845.269 102.612 842.071 101.972 839.513 101.332C837.594 84.0638 825.442 69.3535 809.453 64.2369C808.813 50.1661 816.488 36.0954 829.28 29.0601C856.142 14.3498 890.679 34.8163 888.121 66.7952C870.852 68.7139 858.061 84.0638 858.7 101.332C854.863 101.972 851.665 102.612 848.467 102.612ZM916.902 100.053C900.912 101.972 883.644 103.891 865.096 105.17C861.259 89.82 872.771 73.8305 888.76 73.191C904.11 71.9118 917.541 84.7034 916.902 100.053C916.902 99.4137 901.552 101.972 916.902 100.053ZM1017.96 69.9931C1016.04 75.1097 1009 78.3076 1004.52 80.2263C996.21 84.0638 987.255 86.6221 978.301 88.5408C960.393 93.0179 941.845 96.2158 923.298 98.7741C923.298 82.1451 909.867 68.0743 893.877 66.7952C894.517 54.6432 890.679 42.4912 882.365 32.8976C910.506 36.0954 938.648 38.6537 966.149 45.0495C977.662 47.6078 989.174 50.1661 1000.05 54.6432C1005.8 56.5619 1015.4 60.3994 1017.96 66.1556C1018.59 67.4348 1018.59 68.7139 1017.96 69.9931C1018.59 69.3535 1017.96 70.6326 1017.96 69.9931Z" fill="#DAD603"/>
</g>
</g>
</g>
</g>
</g>
</g>
<defs>
<clipPath id="clip0_608_372">
<rect width="1500" height="408.75" fill="white"/>
</clipPath>
<clipPath id="clip1_608_372">
<rect width="1496.93" height="410.564" fill="white" transform="translate(1.53345 -0.906738)"/>
</clipPath>
<clipPath id="clip2_608_372">
<rect width="1496.93" height="410.564" fill="white" transform="translate(1.53345 -0.906738)"/>
</clipPath>
<clipPath id="clip3_608_372">
<rect width="1496.93" height="410.564" fill="white" transform="translate(1.53345 -0.906738)"/>
</clipPath>
<clipPath id="clip4_608_372">
<rect width="1496.93" height="156.819" fill="white" transform="translate(1.53345 252.838)"/>
</clipPath>
<clipPath id="clip5_608_372">
<rect width="1496.93" height="156.819" fill="white" transform="translate(1.53345 252.838)"/>
</clipPath>
<clipPath id="clip6_608_372">
<rect width="1496.93" height="156.819" fill="white" transform="translate(1.53345 252.838)"/>
</clipPath>
<clipPath id="clip7_608_372">
<rect width="1496.93" height="156.819" fill="white" transform="translate(1.53345 252.838)"/>
</clipPath>
<clipPath id="clip8_608_372">
<rect width="549.682" height="216.724" fill="white" transform="translate(475.159 -0.906738)"/>
</clipPath>
<clipPath id="clip9_608_372">
<rect width="549.682" height="216.724" fill="white" transform="translate(475.159 -0.906738)"/>
</clipPath>
</defs>
</svg>
